<?xml version="1.0" encoding="UTF-8"?>
<svg id="Calque_2" data-name="Calque 2" xmlns="http://www.w3.org/2000/svg" width="48" height="48" viewBox="0 0 48 48">
  <g id="Planche">
    <g>
      <rect width="48" height="48" style="fill: none;"/>
      <g>
        <path d="m32.17,2.12c1.05,0,1.9.85,1.9,1.9v1.87c0,.5-.2.99-.56,1.34l-1.16,1.16c-.36.36-.56.84-.56,1.34v10.36c0,.99.32,1.95.91,2.74l11.82,15.71c1.05,1.39,1.21,3.25.43,4.81-.78,1.56-2.37,2.54-4.12,2.54H13.64c-1.74,0-3.34-.98-4.12-2.54-.78-1.56-.61-3.42.43-4.81l11.82-15.71c.59-.79.91-1.75.91-2.74v-10.36c0-.5-.2-.99-.56-1.34l-1.16-1.16c-.36-.36-.56-.84-.56-1.34v-1.87c0-1.05.85-1.9,1.9-1.9h9.86Z" style="fill: none; stroke: #cb2e51; stroke-miterlimit: 10;"/>
        <g>
          <path d="m12.76,34.75c-2.11-1.04-3.73-3.27-4.22-6.73-.79-5.48,5.47-12.5,5.47-12.5,0,0,5.21,3.26,7.62,7.4" style="fill: none; stroke: #cb2e51; stroke-miterlimit: 10;"/>
          <path d="m10.19,38.18c-.54-.09-1.11-.23-1.7-.43-4.48-1.52-7.43-9.02-7.43-9.02,0,0,3.73-2.25,7.49-2.83-3.76.59-7.49,2.83-7.49,2.83,0,0,2.94,7.5,7.43,9.02.59.2,1.16.34,1.7.43Z" style="fill: none; stroke: #cb2e51; stroke-miterlimit: 10;"/>
          <path d="m14.65,23.38l1.31,7.09-1.31-7.09Z" style="fill: none; stroke: #cb2e51; stroke-miterlimit: 10;"/>
        </g>
        <path d="m43.71,23.64c1.78,0,3.23,1.45,3.23,3.23s-1.45,3.23-3.23,3.23-3.23-1.45-3.23-3.23,1.45-3.23,3.23-3.23Z" style="fill: none; stroke: #cb2e51; stroke-miterlimit: 10;"/>
        <path d="m38.32,13.94c1.19,0,2.15.96,2.15,2.15s-.96,2.15-2.15,2.15-2.15-.96-2.15-2.15.96-2.15,2.15-2.15Z" style="fill: none; stroke: #cb2e51; stroke-miterlimit: 10;"/>
        <circle cx="42.63" cy="7.48" r="2.15" style="fill: none; stroke: #cb2e51; stroke-miterlimit: 10;"/>
        <path d="m19.2,29.57c2.52,0,5.03,2.99,10.06,2.99,4.36,0,6.2-2.25,8.8-2.84" style="fill: none; stroke: #cb2e51; stroke-miterlimit: 10;"/>
      </g>
    </g>
  </g>
</svg>