<?xml version="1.0" encoding="UTF-8"?>
<svg id="Calque_2" data-name="Calque 2" xmlns="http://www.w3.org/2000/svg" width="48" height="48" viewBox="0 0 48 48">
  <g id="Planche">
    <g>
      <rect width="48" height="48" style="fill: none;"/>
      <g>
        <path d="m18.96,41.2h10.08v5.3c0,.43-.35.78-.78.78h-8.51c-.43,0-.78-.35-.78-.78v-5.3h0Z" style="fill: none; stroke: #0073b8; stroke-linejoin: round;"/>
        <path d="m39.28,23.51c0-9.02-7.82-16.22-17.05-15.17-6.86.78-12.49,6.31-13.37,13.16-.82,6.39,2.32,12.13,7.3,15.11,1.29.78,2.12,2.14,2.12,3.65h0c0,.52.42.94.94.94h9.57c.52,0,.94-.42.94-.94h0c0-1.52.85-2.88,2.15-3.67,4.43-2.67,7.39-7.53,7.39-13.08Z" style="fill: none; stroke: #0073b8; stroke-linejoin: round;"/>
        <path d="m42.18,23.41h4.31-4.31Z" style="fill: none; stroke: #0073b8; stroke-linejoin: round;"/>
        <path d="m1.51,23.41h4.31H1.51Z" style="fill: none; stroke: #0073b8; stroke-linejoin: round;"/>
        <path d="m24,.92v4.31V.92Z" style="fill: none; stroke: #0073b8; stroke-linejoin: round;"/>
        <path d="m11.15,36.26l-3.05,3.05,3.05-3.05Z" style="fill: none; stroke: #0073b8; stroke-linejoin: round;"/>
        <path d="m39.9,7.5l-3.05,3.05,3.05-3.05Z" style="fill: none; stroke: #0073b8; stroke-linejoin: round;"/>
        <path d="m11.15,10.55l-3.05-3.05,3.05,3.05Z" style="fill: none; stroke: #0073b8; stroke-linejoin: round;"/>
        <path d="m39.9,39.31l-3.05-3.05,3.05,3.05Z" style="fill: none; stroke: #0073b8; stroke-linejoin: round;"/>
        <path d="m17.84,23.41c0,3.4,2.76,6.16,6.16,6.16s6.16-2.76,6.16-6.16-2.76-6.16-6.16-6.16-6.16,2.76-6.16,6.16Z" style="fill: none; stroke: #0073b8; stroke-linejoin: round;"/>
        <path d="m24,14.64v2.71-2.71Z" style="fill: none; stroke: #0073b8; stroke-linejoin: round;"/>
        <path d="m24,29.46v2.71-2.71Z" style="fill: none; stroke: #0073b8; stroke-linejoin: round;"/>
        <path d="m28.38,15.82l-1.36,2.35,1.36-2.35Z" style="fill: none; stroke: #0073b8; stroke-linejoin: round;"/>
        <path d="m20.97,28.65l-1.36,2.35,1.36-2.35Z" style="fill: none; stroke: #0073b8; stroke-linejoin: round;"/>
        <path d="m31.59,19.02l-2.35,1.36,2.35-1.36Z" style="fill: none; stroke: #0073b8; stroke-linejoin: round;"/>
        <path d="m18.76,26.43l-2.35,1.36,2.35-1.36Z" style="fill: none; stroke: #0073b8; stroke-linejoin: round;"/>
        <path d="m32.76,23.41h-2.71,2.71Z" style="fill: none; stroke: #0073b8; stroke-linejoin: round;"/>
        <path d="m17.95,23.41h-2.71,2.71Z" style="fill: none; stroke: #0073b8; stroke-linejoin: round;"/>
        <path d="m31.59,27.79l-2.35-1.36,2.35,1.36Z" style="fill: none; stroke: #0073b8; stroke-linejoin: round;"/>
        <path d="m18.76,20.38l-2.35-1.36,2.35,1.36Z" style="fill: none; stroke: #0073b8; stroke-linejoin: round;"/>
        <path d="m28.38,31l-1.36-2.35,1.36,2.35Z" style="fill: none; stroke: #0073b8; stroke-linejoin: round;"/>
        <path d="m20.97,18.17l-1.36-2.35,1.36,2.35Z" style="fill: none; stroke: #0073b8; stroke-linejoin: round;"/>
        <path d="m25.03,23.41h-2.06,2.06Z" style="fill: none; stroke: #0073b8; stroke-linejoin: round;"/>
      </g>
    </g>
  </g>
</svg>