<?xml version="1.0" encoding="UTF-8"?>
<svg id="Calque_2" data-name="Calque 2" xmlns="http://www.w3.org/2000/svg" width="48" height="48" viewBox="0 0 48 48">
  <g id="Planche">
    <g>
      <rect width="48" height="48" style="fill: none;"/>
      <g>
        <g>
          <path d="m26.26,23.38c4.71.08,9.71,2.28,10.78,4,.33.53.64,1.03.99,1.38.61.61,2.1.94,3.43,1.24,2.01.45,4.09.92,4.09,2.56,0,3.81-3.05,6.6-5.12,7.29-.98.33-2.05.24-3.08.16-1.27-.1-2.47-.2-3.42.43-1.83,1.22-3.09,3.71-3.1,3.74" style="fill: none; stroke: #0073b8; stroke-linecap: round; stroke-linejoin: round;"/>
          <path d="m28.09,26.44c.16,1.04.8,6.54.8,8.12,0,1.69-.97,2.66-2.66,2.66s-5.45-3.82-6.1-4.66" style="fill: none; stroke: #0073b8; stroke-linecap: round; stroke-linejoin: round;"/>
        </g>
        <path d="m10.35,47.06s6.34-20.11,22.26-35.42" style="fill: none; stroke: #0073b8; stroke-linecap: round; stroke-linejoin: round;"/>
        <g>
          <line x1="8.2" y1="37.47" x2="8.2" y2="26.04" style="fill: none; stroke: #0073b8; stroke-linecap: round; stroke-linejoin: round;"/>
          <path d="m4.26,40.93v-16.84c0-3.07,2.49-5.57,5.57-5.57h.22s1.15,1.66,4.51,1.59,5.32-1.59,5.32-1.59h0c.38,0,.76.04,1.12.11" style="fill: none; stroke: #0073b8; stroke-linecap: round; stroke-linejoin: round;"/>
          <path d="m6.16,42.82c-1.04,0-1.89-.85-1.89-1.89" style="fill: none; stroke: #0073b8; stroke-linecap: round; stroke-linejoin: round;"/>
          <path d="m20.77,10.01c-.97,3.71-2.68,6.94-5.98,6.94s-5.98-3.11-5.98-6.94c0,0-1.89-3.92-.61-5.72,1.27-1.81,2.72-1.23,2.72-1.23,0,0,3.62-3.47,7.02-1.52s3.85,4.6,2.84,8.47Z" style="fill: none; stroke: #0073b8; stroke-linecap: round; stroke-linejoin: round;"/>
          <line x1="20.77" y1="10.01" x2="13.81" y2="6.08" style="fill: none; stroke: #0073b8; stroke-linecap: round; stroke-linejoin: round;"/>
          <path d="m14.5,8.95l-3.02-1.63c-.44-.24-.99-.09-1.25.34l-1.43,2.36" style="fill: none; stroke: #0073b8; stroke-linecap: round; stroke-linejoin: round;"/>
        </g>
      </g>
    </g>
  </g>
</svg>