<?xml version="1.0" encoding="UTF-8"?>
<svg id="Calque_2" data-name="Calque 2" xmlns="http://www.w3.org/2000/svg" width="48" height="48" xmlns:xlink="http://www.w3.org/1999/xlink" viewBox="0 0 48 48">
  <defs>
    <clipPath id="clippath">
      <rect width="48" height="48" style="fill: none;"/>
    </clipPath>
  </defs>
  <g id="Planche">
    <g style="clip-path: url(#clippath); fill: none;">
      <path d="m6.85,45.96c-2.65,0-4.8-2.16-4.8-4.8s2.15-4.8,4.8-4.8,4.8,2.15,4.8,4.8-2.15,4.8-4.8,4.8Zm0-8.58c-2.08,0-3.77,1.69-3.77,3.77s1.69,3.77,3.77,3.77,3.77-1.69,3.77-3.77-1.69-3.77-3.77-3.77Zm34.31,6.97h-8.58c-1.86,0-3.37-1.51-3.37-3.37s1.51-3.37,3.37-3.37h8.58c1.86,0,3.37,1.51,3.37,3.37s-1.51,3.37-3.37,3.37Zm-3.77-1.03h3.77c1.29,0,2.34-1.05,2.34-2.34s-1.05-2.34-2.34-2.34h-3.77v4.69Zm-4.8-4.69c-1.29,0-2.34,1.05-2.34,2.34s1.05,2.34,2.34,2.34h3.77v-4.69h-3.77Zm-13.21,3.03c-.9,0-1.75-.35-2.39-.99-1.32-1.32-1.32-3.46,0-4.77l6.07-6.07c1.32-1.31,3.45-1.31,4.77,0,1.32,1.32,1.32,3.46,0,4.77l-6.07,6.06c-.64.64-1.48.99-2.38.99Zm6.07-11.78c-.6,0-1.2.23-1.66.68l-6.07,6.07c-.44.44-.69,1.03-.69,1.66s.24,1.22.69,1.66c.89.89,2.43.89,3.31,0l6.06-6.06c.91-.91.91-2.4,0-3.31-.45-.46-1.05-.68-1.66-.68Zm-8.09,6.39h.01-.01Zm-7.64-4.61c-2.05,0-3.97-.8-5.42-2.24-1.45-1.45-2.24-3.37-2.24-5.42s.8-3.97,2.24-5.42c2.99-2.99,7.85-2.99,10.84,0,1.45,1.45,2.24,3.37,2.24,5.42s-.8,3.97-2.24,5.42c-1.45,1.45-3.37,2.24-5.42,2.24Zm-6.61-7.15c.12,1.58.79,3.04,1.92,4.17,1.25,1.25,2.92,1.94,4.69,1.94s3.44-.69,4.69-1.94c1.13-1.13,1.8-2.6,1.92-4.17H3.09Zm0-1.03h13.23c-.12-1.58-.79-3.04-1.92-4.18-1.25-1.25-2.92-1.94-4.69-1.94s-3.44.69-4.69,1.94c-1.13,1.13-1.8,2.6-1.92,4.18Zm35.2,8.03c-2.05,0-3.97-.8-5.42-2.24l-7.06-7.06s-.01-.01-.02-.02c0,0-.01-.01-.02-.02l-7.06-7.06c-2.99-2.99-2.99-7.85,0-10.84,1.45-1.45,3.37-2.24,5.42-2.24s3.97.8,5.42,2.24l7.06,7.06s.01.01.02.02c0,0,.01.01.02.02l7.06,7.06c1.45,1.45,2.24,3.37,2.24,5.42s-.8,3.97-2.24,5.42c-1.45,1.45-3.37,2.25-5.42,2.25Zm-11.4-9.68l6.71,6.71c1.25,1.25,2.92,1.94,4.69,1.94s3.44-.69,4.69-1.94c1.25-1.25,1.94-2.92,1.94-4.69s-.69-3.44-1.94-4.69l-6.71-6.71-9.38,9.38Zm-2.75-18.76c-1.77,0-3.44.69-4.69,1.94-1.25,1.25-1.94,2.92-1.94,4.69s.69,3.44,1.94,4.69l6.71,6.71,9.38-9.38-6.71-6.71c-1.25-1.25-2.92-1.94-4.69-1.94ZM6.85,11.65c-2.65,0-4.8-2.15-4.8-4.8S4.2,2.04,6.85,2.04s4.8,2.15,4.8,4.8-2.15,4.8-4.8,4.8Zm0-8.58c-2.08,0-3.77,1.69-3.77,3.77s1.69,3.77,3.77,3.77,3.77-1.69,3.77-3.77-1.69-3.77-3.77-3.77Zm35.02,7.15c-2.25,0-4.09-1.83-4.09-4.09s1.83-4.09,4.09-4.09,4.09,1.83,4.09,4.09-1.83,4.09-4.09,4.09Zm0-7.15c-1.69,0-3.06,1.37-3.06,3.06s1.37,3.06,3.06,3.06,3.06-1.37,3.06-3.06-1.37-3.06-3.06-3.06Z" style="fill: #0069b3;"/>
    </g>
  </g>
</svg>