<svg width="93" height="52" viewBox="0 0 93 52" fill="none" xmlns="http://www.w3.org/2000/svg">
<g clip-path="url(#clip0_3333_14393)">
<path d="M43.8104 18.0694C43.8104 28.0451 35.765 36.1388 25.8276 36.1388C15.8902 36.1388 7.85434 28.0451 7.85434 18.0694C7.85434 8.0938 15.8998 0 25.8372 0C35.7745 0 43.82 8.0842 43.82 18.0694H43.8104Z" fill="#54616C"/>
<path d="M64.0769 32.2984C65.558 32.8936 67.0868 33.2489 68.4627 33.2489C74.0907 33.2489 81.3622 27.2962 81.3622 20.8346H64.5929L67.0581 18.1366H83.8465C85.0983 22.678 83.4739 26.5569 80.5118 30.2533C77.5497 33.9498 73.0301 36.0716 68.5201 36.0716C65.9211 36.0716 63.4463 35.4092 61.239 34.2378" fill="#54616C"/>
<path d="M54.2638 16.6388C54.2064 17.2053 54.1873 17.7814 54.1969 18.3575L51.3877 18.9143C51.3494 18.0694 51.3685 17.2053 51.4545 16.3316C51.9992 10.6861 54.9517 5.88552 59.1082 2.97637C56.2895 1.13294 52.9165 0.0480061 49.2951 0.0480061C39.3577 0.0480061 31.3123 8.1418 31.3123 18.1174C31.3123 28.0931 39.3577 36.1869 49.2951 36.1869C59.2325 36.1869 67.2779 28.1027 67.2779 18.1174C67.2779 12.8752 65.0515 8.1514 61.497 4.8486C57.6367 7.44092 54.7224 11.9247 54.2638 16.6388Z" fill="#8EB73C"/>
<path d="M69.9916 0.0768093C65.9975 -0.0288037 62.2232 0.806499 59.1082 2.98597C54.9422 5.89513 51.9992 10.6957 51.4545 16.3412C51.3685 17.2053 51.3494 18.0694 51.3877 18.9239L54.1969 18.3671C54.1969 17.791 54.2064 17.2149 54.2638 16.6484C54.7224 11.9343 57.6367 7.45052 61.497 4.8582C63.9909 3.17799 66.8861 2.29468 69.7718 2.64032C74.7118 3.2356 78.1039 6.27917 81.0947 10.3789L83.8848 9.64919C80.7125 4.32053 75.5431 0.220827 69.9916 0.0768093Z" fill="#54616C"/>
<path d="M51.1679 25.8272C51.1679 23.0428 53.4134 20.7866 56.1748 20.7866C58.9362 20.7866 61.1817 23.0428 61.1817 25.8272C61.1817 28.6115 58.9362 30.8582 56.1748 30.8582C53.4134 30.8582 51.1679 28.6019 51.1679 25.8272Z" fill="#54616C"/>
<path d="M15.6227 42.8885H17.0846L21.3367 51.8272H19.2632L18.1835 49.5229H14.5525L13.4728 51.8272H11.3993L15.6227 42.8885ZM15.1832 47.9579H17.5146L16.3584 45.2216H16.3298L15.1832 47.9579Z" fill="#8EB73C"/>
<path d="M41.6032 42.8885H47.0592V44.4343H43.476V46.6233H46.9063V48.1691H43.476V50.2814H47.0592V51.8272H41.6032V42.8885Z" fill="#8EB73C"/>
<path d="M50.0786 42.8885H55.2479V44.4343H51.961V46.6233H55.1046V48.1691H51.961V51.8272H50.0786V42.8885Z" fill="#8EB73C"/>
<path d="M61.8792 42.7061C64.7553 42.7061 67.1919 44.7319 67.1919 47.3722C67.1919 50.0126 64.8031 52 61.8792 52C58.9553 52 56.5761 49.9357 56.5761 47.3722C56.5761 44.8087 59.0031 42.7061 61.8792 42.7061ZM61.8792 50.4542C63.8094 50.4542 65.3095 49.014 65.3095 47.3626C65.3095 45.7112 63.7903 44.2422 61.8792 44.2422C59.9682 44.2422 58.4489 45.644 58.4489 47.3626C58.4489 49.0812 59.9395 50.4542 61.8792 50.4542Z" fill="#8EB73C"/>
<path d="M71.1286 49.2637C71.2242 50.1566 71.893 50.4542 72.4759 50.4542C73.2212 50.4542 73.871 50.0126 73.871 49.3309C73.871 48.4092 73.2021 48.2459 71.9408 47.8235C71.1573 47.5547 69.5329 47.1322 69.5329 45.2504C69.5329 43.8294 70.7942 42.7061 72.5046 42.7061C73.6798 42.7061 75.4093 43.4261 75.5049 45.2504H73.5843C73.5079 44.4535 72.9537 44.2518 72.4472 44.2518C71.8548 44.2518 71.4057 44.6263 71.4057 45.1544C71.4057 45.9224 72.065 46.0953 73.097 46.4025C73.9283 46.6425 75.7533 47.209 75.7533 49.158C75.7533 51.1071 74.0525 52.0096 72.4568 52.0096C71.1573 52.0096 69.2654 51.2319 69.1507 49.2733H71.1286V49.2637Z" fill="#8EB73C"/>
<path d="M79.5945 49.2637C79.69 50.1566 80.3589 50.4542 80.9418 50.4542C81.6775 50.4542 82.3368 50.0126 82.3368 49.3309C82.3368 48.4092 81.668 48.2459 80.4067 47.8235C79.6232 47.5547 77.9892 47.1322 77.9892 45.2504C77.9892 43.8294 79.2505 42.7061 80.9609 42.7061C82.1362 42.7061 83.8657 43.4261 83.9612 45.2504H82.0406C81.9546 44.4535 81.41 44.2518 80.9035 44.2518C80.3111 44.2518 79.862 44.6263 79.862 45.1544C79.862 45.9224 80.5213 46.0953 81.5533 46.4025C82.3942 46.6425 84.2096 47.209 84.2096 49.158C84.2096 51.1071 82.5088 52.0096 80.9227 52.0096C79.6232 52.0096 77.7312 51.2319 77.6166 49.2733H79.5945V49.2637Z" fill="#8EB73C"/>
<path d="M86.7704 42.8885H92.2264V44.4343H88.6432V46.6233H92.0735V48.1691H88.6432V50.2814H92.2264V51.8272H86.7704V42.8885ZM87.8693 41.1219L90.9556 39.5185L91.6913 40.7858L88.5668 42.2356L87.8693 41.1219Z" fill="#8EB73C"/>
<path d="M39.1953 42.8885H31.3983V44.4343H34.3508V51.8176H36.2332V44.4343H39.1953V42.8885Z" fill="#8EB73C"/>
<path d="M29.3057 42.8885H21.5087V44.4343H24.4612V51.8176H26.334V44.4343H29.3057V42.8885Z" fill="#8EB73C"/>
<path d="M5.1789 47.257H10.5585V47.4394C10.5585 49.9261 8.08367 51.8656 5.31267 51.8656C2.54168 51.8656 -0.009552 49.9453 -0.009552 47.3338C-0.009552 44.7223 2.46523 42.8021 5.25534 42.8021C7.73968 42.8021 9.54561 44.2903 10.0616 45.5288H7.8639C7.43392 44.9527 6.52618 44.3095 5.21712 44.3095C2.98121 44.3095 1.82504 45.9801 1.82504 47.3434C1.82504 48.7068 2.9621 50.3582 5.31267 50.3582C6.52618 50.3582 7.66324 49.7725 8.24611 48.7548H5.1789" fill="#8EB73C"/>
</g>
<defs>
<clipPath id="clip0_3333_14393">
<rect width="92.2264" height="52" fill="white"/>
</clipPath>
</defs>
</svg>
