<?xml version="1.0" standalone="no"?>
<!DOCTYPE svg PUBLIC "-//W3C//DTD SVG 20010904//EN"
 "http://www.w3.org/TR/2001/REC-SVG-20010904/DTD/svg10.dtd">
<svg version="1.0" xmlns="http://www.w3.org/2000/svg"
 width="1296.000000pt" height="1296.000000pt" viewBox="0 0 1296.000000 1296.000000"
 preserveAspectRatio="xMidYMid meet">
<metadata>
Created by potrace 1.14, written by Peter Selinger 2001-2017
</metadata>
<g transform="translate(0.000000,1296.000000) scale(0.100000,-0.100000)"
fill="#000000" stroke="none">
<path d="M2838 9514 c-2 -2 -37 -6 -78 -9 -41 -2 -84 -7 -95 -9 -11 -2 -42 -7
-70 -10 -27 -4 -93 -16 -145 -27 -52 -11 -106 -22 -120 -25 -14 -3 -56 -14
-94 -25 -38 -12 -76 -22 -85 -24 -27 -5 -217 -76 -306 -114 -62 -27 -241 -117
-243 -123 -2 -5 -10 -8 -18 -8 -8 0 -20 -5 -27 -10 -7 -6 -65 -44 -129 -84
-122 -77 -234 -158 -256 -184 -6 -9 -12 -12 -12 -6 0 5 -3 5 -8 -1 -4 -6 -41
-39 -82 -75 -122 -107 -320 -312 -368 -381 -9 -13 -19 -26 -23 -29 -25 -19
-239 -339 -239 -359 0 -5 -3 -11 -7 -13 -18 -7 -155 -286 -183 -371 -6 -22
-18 -51 -26 -65 -8 -15 -14 -34 -14 -42 0 -9 -4 -20 -9 -25 -7 -9 -65 -200
-75 -250 -3 -11 -10 -42 -16 -70 -6 -27 -13 -59 -16 -70 -2 -11 -6 -31 -9 -45
-3 -14 -7 -41 -10 -60 -3 -19 -6 -44 -9 -55 -16 -80 -28 -256 -29 -420 0 -120
3 -186 18 -370 1 -16 5 -46 9 -65 3 -19 8 -51 11 -70 15 -113 90 -414 115
-461 8 -13 13 -26 12 -29 -4 -11 8 -45 47 -132 12 -26 21 -52 21 -56 0 -14
112 -243 154 -313 75 -129 95 -162 143 -229 28 -41 56 -80 60 -85 4 -6 21 -28
38 -50 16 -22 39 -51 51 -65 12 -14 43 -50 69 -80 56 -66 243 -250 306 -302
97 -80 115 -94 179 -141 126 -93 393 -254 434 -263 10 -2 26 -10 36 -19 9 -8
24 -15 33 -15 8 0 22 -6 29 -12 7 -7 18 -14 23 -15 6 -1 42 -15 80 -31 39 -16
99 -39 135 -51 36 -12 72 -25 80 -28 17 -7 26 -9 55 -17 11 -3 61 -16 110 -29
123 -33 184 -47 225 -51 19 -2 46 -6 60 -9 23 -6 51 -10 155 -22 22 -3 74 -7
115 -10 41 -2 77 -5 80 -5 3 -1 59 -1 125 -1 187 1 384 17 510 42 28 5 61 11
75 14 14 3 36 7 50 10 14 3 34 7 45 9 83 16 352 100 420 131 17 7 55 23 85 35
180 70 506 265 685 410 48 38 92 67 98 63 12 -7 17 -11 87 -69 115 -94 406
-284 435 -284 8 0 15 -3 15 -8 0 -12 269 -137 370 -172 19 -7 44 -16 55 -20
36 -15 158 -52 177 -53 10 -1 18 -5 18 -10 0 -4 6 -7 13 -6 6 1 19 0 27 -4 58
-22 291 -63 470 -84 93 -10 479 -11 580 0 284 28 594 103 840 204 110 45 350
162 368 179 7 8 20 14 28 14 8 0 14 5 14 10 0 6 5 10 10 10 10 0 208 127 220
140 3 3 21 17 40 30 19 14 44 32 55 41 11 10 51 43 90 76 81 67 286 271 330
328 17 21 37 45 45 53 8 9 45 56 82 106 36 50 73 98 81 108 8 9 18 25 22 37 3
12 11 21 16 21 5 0 9 4 9 10 0 5 17 36 37 67 76 119 154 274 227 453 27 69
102 292 112 335 1 6 14 62 28 125 23 106 33 157 35 187 1 17 2390 17 2392 0
11 -104 -28 -328 -88 -500 -34 -100 -124 -293 -163 -352 -11 -16 -25 -41 -30
-55 -6 -13 -15 -27 -19 -30 -4 -3 -26 -33 -49 -66 -124 -185 -339 -408 -537
-559 -33 -25 -66 -50 -73 -56 -34 -28 -256 -169 -267 -169 -3 0 -23 -11 -45
-25 -22 -14 -46 -25 -54 -25 -8 0 -16 -4 -18 -8 -6 -17 -297 -131 -373 -148
-5 -1 -37 -9 -70 -18 -33 -8 -78 -18 -100 -21 -22 -4 -60 -9 -85 -13 -90 -14
-374 -6 -456 12 -12 2 -38 7 -59 10 -20 4 -40 8 -44 11 -4 2 -19 6 -33 9 -70
12 -224 60 -293 91 -26 12 -33 12 -65 -7 -19 -12 -44 -30 -56 -40 -11 -10 -26
-18 -32 -18 -7 0 -12 -4 -12 -10 0 -5 -6 -10 -14 -10 -8 0 -16 -3 -18 -8 -1
-4 -43 -34 -93 -67 -49 -33 -92 -62 -95 -65 -7 -7 -87 -62 -111 -76 -20 -11
-15 -14 176 -100 54 -24 227 -89 265 -100 106 -28 210 -55 230 -59 59 -13 209
-37 260 -42 79 -8 487 -8 540 0 25 4 65 9 90 13 38 4 199 36 252 49 92 22 242
70 318 102 8 3 17 7 20 8 16 5 53 22 118 51 40 18 74 32 75 32 1 -1 21 11 44
25 24 15 45 27 47 27 8 0 131 74 144 87 7 7 20 13 27 13 8 0 18 6 22 14 4 7
22 20 38 29 29 15 132 93 209 159 95 80 270 262 349 363 48 61 91 115 95 120
4 6 31 44 60 85 28 41 55 80 60 85 42 51 246 432 257 480 1 6 7 24 14 40 15
35 61 173 66 195 1 8 8 33 14 55 5 22 13 54 16 70 2 17 7 41 10 55 14 77 18
143 18 310 0 102 -3 203 -6 225 -3 22 -9 58 -12 80 -9 54 -12 72 -26 125 -6
25 -12 52 -13 60 -3 13 -165 15 -1389 15 -918 0 -1387 3 -1388 10 0 6 -2 42
-4 80 -10 209 -33 395 -71 570 -22 101 -30 135 -37 141 -4 4 -7 15 -7 24 0 9
-14 57 -31 106 -16 49 -31 94 -33 99 -1 6 -10 27 -19 49 -9 21 -17 42 -17 47
0 5 -14 39 -31 76 -84 184 -180 358 -265 481 -24 35 -44 65 -44 67 0 3 -9 15
-19 27 -10 13 -55 68 -99 123 -43 55 -127 149 -185 210 -93 96 -104 111 -89
121 43 29 239 138 290 161 31 14 75 33 97 43 73 32 241 91 275 96 20 3 58 12
80 19 21 7 38 10 100 20 25 3 58 9 74 11 86 14 335 19 406 9 19 -3 56 -7 81
-10 25 -3 56 -8 70 -11 13 -2 59 -11 102 -20 43 -8 90 -20 105 -25 15 -6 38
-13 52 -16 70 -13 220 -72 370 -146 307 -152 610 -400 893 -732 38 -44 76 -89
86 -100 9 -11 54 -69 100 -128 71 -92 87 -108 105 -102 29 9 247 66 269 70 9
2 21 6 25 9 5 3 19 7 33 9 79 15 111 28 104 45 -11 29 -188 292 -197 292 -4 0
-8 5 -8 11 0 6 -19 34 -42 63 -24 29 -52 64 -63 78 -118 149 -320 359 -460
478 -27 24 -52 46 -55 49 -3 4 -21 18 -40 31 -19 14 -44 33 -55 43 -23 21
-259 181 -304 206 -43 24 -303 153 -326 162 -86 33 -193 72 -210 75 -11 2 -50
12 -87 23 -38 11 -68 17 -68 15 0 -3 -8 -1 -17 5 -10 5 -38 12 -63 15 -96 14
-117 17 -185 25 -70 9 -528 7 -575 -3 -14 -2 -54 -7 -90 -11 -77 -7 -127 -14
-158 -21 -13 -3 -43 -7 -65 -10 -23 -3 -69 -12 -102 -20 -33 -8 -71 -17 -85
-20 -66 -13 -244 -70 -349 -110 -119 -46 -331 -149 -381 -184 -16 -11 -33 -20
-39 -20 -6 0 -11 -4 -11 -10 0 -5 -7 -10 -15 -10 -8 0 -15 -4 -15 -10 0 -5 -6
-10 -13 -10 -8 0 -22 -9 -31 -19 -19 -21 -39 -18 -70 11 -11 10 -23 18 -27 18
-4 0 -36 17 -71 39 -75 46 -374 191 -393 191 -4 0 -21 7 -38 14 -77 35 -378
123 -487 141 -19 3 -42 8 -50 10 -8 2 -35 6 -60 9 -25 3 -56 8 -70 11 -14 3
-59 8 -100 11 -41 3 -91 8 -110 10 -42 4 -350 4 -404 -1 -165 -14 -272 -28
-376 -51 -14 -3 -34 -6 -45 -8 -11 -2 -29 -6 -40 -9 -11 -3 -32 -8 -46 -11
-58 -10 -295 -84 -384 -121 -11 -5 -22 -9 -25 -10 -147 -50 -464 -224 -627
-345 -33 -25 -74 -54 -89 -65 -15 -11 -38 -30 -50 -42 -13 -13 -26 -23 -30
-23 -4 0 -16 -7 -26 -17 -17 -15 -19 -15 -36 3 -9 10 -37 35 -62 54 -25 19
-46 38 -48 42 -2 4 -10 8 -18 8 -8 0 -14 3 -14 8 0 4 -18 18 -40 32 -22 14
-40 28 -40 32 0 5 -6 8 -13 8 -7 0 -22 8 -33 18 -23 20 -27 22 -163 103 -124
73 -310 163 -446 214 -88 33 -293 97 -350 110 -11 2 -49 11 -85 19 -36 7 -68
12 -72 9 -5 -2 -8 0 -8 4 0 5 -15 9 -32 9 -18 1 -48 4 -65 8 -68 13 -99 18
-148 22 -62 7 -512 14 -517 8z"/>
</g>
</svg>
