<svg width="343" height="373" viewBox="0 0 343 373" fill="none" xmlns="http://www.w3.org/2000/svg">
<path d="M133.886 333.49C149.221 339.643 165.051 343.316 179.299 343.316C237.573 343.316 312.865 281.779 312.865 214.981H139.229L164.755 187.091H338.589C351.55 234.038 334.73 274.136 304.06 312.349C273.389 350.561 226.591 372.496 179.892 372.496C152.981 372.496 127.356 365.648 104.501 353.539" fill="white"/>
<path d="M195.112 0.0914641C153.808 -1.00364 114.777 7.65766 82.5635 30.2567C39.4809 60.4219 9.04642 110.2 3.41406 168.738C2.52474 177.698 2.32712 186.658 2.72237 195.518L31.7735 189.744C31.7735 183.771 31.8723 177.798 32.4652 171.924C37.2082 123.042 67.3463 76.5499 107.267 49.67C133.057 32.2478 162.997 23.0887 192.839 26.6727C243.925 32.8451 279.004 64.4042 309.933 106.914L338.786 99.3481C305.98 44.0949 252.522 1.58479 195.112 0.0914641Z" fill="white"/>
<path d="M0 266.359C0 237.47 23.244 214.059 51.8293 214.059C80.4145 214.059 103.658 237.47 103.658 266.359C103.658 295.249 80.4145 318.56 51.8293 318.56C23.244 318.56 0 295.15 0 266.359Z" fill="white"/>
</svg>
