<?xml version="1.0" encoding="UTF-8"?>
<svg id="Calque_2" data-name="Calque 2" xmlns="http://www.w3.org/2000/svg" width="48" height="48" viewBox="0 0 48 48">
  <g id="Planche">
    <g>
      <rect width="48" height="48" style="fill: none;"/>
      <path d="m17,9.43c0,1.86-1.51,3.37-3.37,3.37s-3.37-1.51-3.37-3.37,1.51-3.37,3.37-3.37,3.37,1.51,3.37,3.37Z" style="fill: none; stroke: #0073b8; stroke-miterlimit: 10;"/>
      <path d="m27.12,3.82c0,1.24-1.01,2.25-2.25,2.25s-2.25-1.01-2.25-2.25,1.01-2.25,2.25-2.25,2.25,1.01,2.25,2.25Z" style="fill: none; stroke: #0073b8; stroke-miterlimit: 10;"/>
      <circle cx="33.86" cy="8.31" r="2.25" style="fill: none; stroke: #0073b8; stroke-miterlimit: 10;"/>
      <path d="m2.72,24.42c2.67,0,5.35,4.14,10.7,4.14,4.64,0,6.59-3.1,9.35-3.93" style="fill: none; stroke: #0073b8; stroke-linejoin: round;"/>
      <path d="m.73,13.8h1.99v24.33c0,2.74,2.22,4.96,4.96,4.96h17.2" style="fill: none; stroke: #0073b8; stroke-linejoin: round;"/>
      <line x1="5.34" y1="35.02" x2="2.87" y2="35.02" style="fill: none; stroke: #0073b8; stroke-linejoin: round;"/>
      <line x1="5.34" y1="30.65" x2="2.87" y2="30.65" style="fill: none; stroke: #0073b8; stroke-linejoin: round;"/>
      <path d="m36.16,19.55c-.6-1.45-1.51-2.83-2.53-4.04-.79-.93-1.42-1.5-1.51-1.59-.67-.62-1.69-.62-2.35,0-.09.08-.73.66-1.51,1.59-1.02,1.21-1.93,2.59-2.53,4.04-.57,1.38-.82,2.94-.7,4.51l1.31,17c.1,1.24,1.11,2.2,2.32,2.2h4.57c1.21,0,2.23-.96,2.32-2.2l1.31-17c.12-1.57-.12-3.13-.7-4.51Z" style="fill: none; stroke: #0073b8; stroke-linejoin: round;"/>
      <path d="m29.89,17.43c-1.04,1.28-1.69,2.48-2.02,3.38" style="fill: none; stroke: #0073b8; stroke-linejoin: round;"/>
      <path d="m27.45,23.1c-.01.48.02.72.09,1.62" style="fill: none; stroke: #0073b8; stroke-linejoin: round;"/>
      <path d="m38.36,28.91c.32-.04.66-.07.99-.07,4.08,0,7.39,3.31,7.39,7.39s-3.31,7.39-7.39,7.39c-1,0-1.95-.2-2.82-.55" style="fill: none; stroke: #0073b8; stroke-linejoin: round;"/>
      <line x1="37.28" y1="37.33" x2="45.9" y2="32.79" style="fill: none; stroke: #0073b8; stroke-linejoin: round;"/>
    </g>
  </g>
</svg>