<?xml version="1.0" encoding="UTF-8"?>
<svg id="Calque_2" data-name="Calque 2" xmlns="http://www.w3.org/2000/svg" viewBox="0 0 70 70">
  <defs>
    <style>
      .cls-1, .cls-2, .cls-3 {
        fill: none;
      }

      .cls-2 {
        stroke-linejoin: round;
      }

      .cls-2, .cls-3 {
        stroke: #cb2e51;
      }

      .cls-3 {
        stroke-miterlimit: 10;
      }
    </style>
  </defs>
  <g id="Planche">
    <g>
      <rect class="cls-1" width="70" height="70"/>
      <path class="cls-2" d="m37.68,35.15c.53-2.39,2.65-5.57,8.23-6.37m15,22.03h-13.27m13.14-3.45h-7.03m-4.63-7.02h-14.48c-1.06,0-1.75-.61-1.67-1.67l-.02-.07c.76-16.99,27.83-14.07,27.83-14.07,0,0-6.37,3.72,1.59,9.02,2.91,1.94,2.95,4.3,2.76,5.43-.12.75-.76,1.34-1.51,1.35-.01,0-.02,0-.03,0h-14.47Zm-15.02,20.21c-1.7-.02-2.74-.9-3.03-2.49-.69-4.51-.09-10.8.72-14.11.21-.87.63-1.67,1.27-2.12.48.21,1.04.32,1.57.32h28.95c.53,0,1.09-.1,1.58-.32.65.45,1.06,1.25,1.27,2.12.81,3.32,1.41,9.6.72,14.11-.29,1.59-1.34,2.47-3.03,2.49h-30.03Z"/>
      <path class="cls-3" d="m22.54,18.95c0,2.32-1.88,4.19-4.19,4.19s-4.19-1.88-4.19-4.19,1.88-4.19,4.19-4.19,4.19,1.88,4.19,4.19Z"/>
      <path class="cls-3" d="m35.14,11.96c0,1.54-1.25,2.79-2.79,2.79s-2.79-1.25-2.79-2.79,1.25-2.79,2.79-2.79,2.79,1.25,2.79,2.79Z"/>
      <circle class="cls-3" cx="43.52" cy="17.55" r="2.79"/>
      <path class="cls-2" d="m4.76,37.61c3.33,0,6.66,5.15,13.32,5.15,5.77,0,8.2-3.86,11.64-4.89"/>
      <path class="cls-2" d="m2.29,24.38h2.47v30.28c0,3.41,2.76,6.17,6.17,6.17h18.61"/>
      <line class="cls-2" x1="8.02" y1="50.81" x2="4.95" y2="50.81"/>
      <line class="cls-2" x1="8.02" y1="45.36" x2="4.95" y2="45.36"/>
    </g>
  </g>
</svg>