<?xml version="1.0" encoding="UTF-8"?>
<svg id="Calque_2" data-name="Calque 2" xmlns="http://www.w3.org/2000/svg" viewBox="0 0 70 70">
  <defs>
    <style>
      .cls-1, .cls-2 {
        fill: none;
      }

      .cls-2 {
        stroke: #cb2e51;
        stroke-miterlimit: 10;
      }
    </style>
  </defs>
  <g id="Planche">
    <g>
      <rect class="cls-1" width="70" height="70"/>
      <g>
        <path class="cls-2" d="m43.8,7.53c1.31,0,2.38,1.07,2.38,2.38v2.35c0,.63-.25,1.24-.7,1.68l-1.46,1.46c-.45.45-.7,1.05-.7,1.68v13.01c0,1.24.4,2.44,1.15,3.43l14.83,19.72c1.31,1.75,1.52,4.08.55,6.04-.98,1.95-2.98,3.19-5.17,3.19H20.54c-2.19,0-4.19-1.23-5.17-3.19-.98-1.95-.77-4.29.55-6.04l14.83-19.72c.74-.99,1.15-2.2,1.15-3.43v-13.01c0-.63-.25-1.24-.7-1.68l-1.46-1.46c-.45-.45-.7-1.05-.7-1.68v-2.35c0-1.31,1.07-2.38,2.38-2.38h12.38Z"/>
        <g>
          <path class="cls-2" d="m19.43,48.49c-2.65-1.3-4.68-4.11-5.3-8.45-.99-6.87,6.87-15.7,6.87-15.7,0,0,6.54,4.09,9.57,9.28"/>
          <path class="cls-2" d="m16.2,52.8c-.68-.11-1.4-.29-2.14-.54-5.63-1.91-9.32-11.32-9.32-11.32,0,0,4.68-2.82,9.4-3.56-4.72.73-9.4,3.56-9.4,3.56,0,0,3.69,9.41,9.32,11.32.74.25,1.45.43,2.14.54Z"/>
          <path class="cls-2" d="m21.8,34.23l1.65,8.9-1.65-8.9Z"/>
        </g>
        <path class="cls-2" d="m58.28,34.55c2.24,0,4.05,1.82,4.05,4.05s-1.82,4.05-4.05,4.05-4.05-1.82-4.05-4.05,1.82-4.05,4.05-4.05Z"/>
        <path class="cls-2" d="m51.52,22.37c1.49,0,2.7,1.21,2.7,2.7s-1.21,2.7-2.7,2.7-2.7-1.21-2.7-2.7,1.21-2.7,2.7-2.7Z"/>
        <circle class="cls-2" cx="56.93" cy="14.26" r="2.7"/>
        <path class="cls-2" d="m27.52,41.99c3.16,0,6.32,3.76,12.63,3.76,5.47,0,7.78-2.82,11.04-3.57"/>
      </g>
    </g>
  </g>
</svg>