<svg width="48" height="48" viewBox="0 0 48 48" fill="none" xmlns="http://www.w3.org/2000/svg">
<g clip-path="url(#clip0_5028_34552)">
<rect width="48" height="48" fill="white" style="mix-blend-mode:multiply"/>
<path d="M6 47.04C3.2205 47.04 0.959999 44.778 0.959999 42C0.959999 39.222 3.2205 36.96 6 36.96C8.7795 36.96 11.04 39.2205 11.04 42C11.04 44.7795 8.7795 47.04 6 47.04ZM6 38.04C3.816 38.04 2.04 39.816 2.04 42C2.04 44.184 3.816 45.96 6 45.96C8.184 45.96 9.96 44.184 9.96 42C9.96 39.816 8.184 38.04 6 38.04ZM42 45.3585H33C31.047 45.3585 29.46 43.77 29.46 41.8185C29.46 39.867 31.0485 38.2785 33 38.2785H42C43.953 38.2785 45.54 39.867 45.54 41.8185C45.54 43.77 43.953 45.3585 42 45.3585ZM38.04 44.2785H42C43.356 44.2785 44.46 43.176 44.46 41.8185C44.46 40.461 43.3575 39.3585 42 39.3585H38.04V44.2785ZM33 39.3585C31.644 39.3585 30.54 40.461 30.54 41.8185C30.54 43.176 31.6425 44.2785 33 44.2785H36.96V39.36L33 39.3585ZM19.1355 42.54C18.1905 42.54 17.301 42.171 16.632 41.5035C15.252 40.1235 15.252 37.8765 16.632 36.4965L22.9965 30.132C24.3765 28.755 26.6205 28.755 28.002 30.132C29.382 31.5135 29.382 33.759 28.002 35.1405L21.6375 41.5035C20.97 42.171 20.082 42.54 19.1355 42.54ZM25.5 30.177C24.87 30.177 24.24 30.417 23.76 30.8955L17.3955 37.26C16.9305 37.725 16.6755 38.343 16.6755 38.9985C16.6755 39.654 16.932 40.2735 17.3955 40.737C18.3255 41.6685 19.944 41.6685 20.874 40.737L27.237 34.374C28.197 33.414 28.197 31.854 27.237 30.8955C26.76 30.417 26.13 30.177 25.5 30.177ZM17.0145 36.879H17.028H17.0145ZM9 32.04C6.852 32.04 4.833 31.203 3.315 29.685C1.7955 28.1655 0.959999 26.148 0.959999 24C0.959999 21.852 1.797 19.833 3.315 18.315C6.45 15.18 11.55 15.18 14.685 18.315C16.2045 19.833 17.04 21.852 17.04 24C17.04 26.148 16.203 28.1655 14.685 29.685C13.167 31.2045 11.148 32.04 9 32.04ZM2.061 24.54C2.187 26.196 2.892 27.735 4.0785 28.92C5.3925 30.2355 7.1415 30.96 9 30.96C10.8585 30.96 12.6075 30.237 13.9215 28.9215C15.108 27.7365 15.813 26.1975 15.939 24.5415L2.061 24.54ZM2.061 23.46H15.9405C15.8145 21.804 15.1095 20.265 13.923 19.0785C12.6075 17.7645 10.8585 17.04 9 17.04C7.1415 17.04 5.3925 17.7645 4.0785 19.0785C2.892 20.265 2.187 21.804 2.061 23.46ZM39 31.89C36.852 31.89 34.8345 31.053 33.315 29.535L25.908 22.128C25.902 22.1235 25.896 22.1175 25.89 22.1115C25.884 22.107 25.8795 22.101 25.8735 22.095L18.4665 14.685C15.3315 11.55 15.3315 6.44996 18.4665 3.31496C19.9845 1.79546 22.0035 0.959961 24.1515 0.959961C26.2995 0.959961 28.317 1.79696 29.8365 3.31496L37.2435 10.722C37.2495 10.7265 37.2555 10.7325 37.2615 10.7385C37.2675 10.743 37.272 10.749 37.278 10.755L44.685 18.162C46.2045 19.68 47.04 21.699 47.04 23.847C47.04 25.995 46.203 28.0125 44.685 29.532C43.167 31.0515 41.148 31.89 39 31.89ZM27.036 21.7275L34.0785 28.77C35.3925 30.0855 37.14 30.8085 38.9985 30.8085C40.857 30.8085 42.6045 30.0855 43.9185 28.77C45.234 27.456 45.957 25.7085 45.957 23.85C45.957 21.9915 45.234 20.2425 43.9185 18.9285L36.8775 11.886L27.036 21.7275ZM24.1515 2.03996C22.293 2.03996 20.544 2.76446 19.23 4.07846C17.9145 5.39246 17.19 7.14146 17.19 8.99996C17.19 10.8585 17.913 12.6075 19.2285 13.9215L26.271 20.964L36.114 11.121L29.0715 4.07846C27.7575 2.76296 26.01 2.03996 24.1515 2.03996ZM6 11.04C3.2205 11.04 0.959999 8.77946 0.959999 5.99996C0.959999 3.22046 3.2205 0.959961 6 0.959961C8.7795 0.959961 11.04 3.22046 11.04 5.99996C11.04 8.77946 8.7795 11.04 6 11.04ZM6 2.03996C3.816 2.03996 2.04 3.81596 2.04 5.99996C2.04 8.18396 3.816 9.95996 6 9.95996C8.184 9.95996 9.96 8.18396 9.96 5.99996C9.96 3.81596 8.184 2.03996 6 2.03996ZM42.75 9.53996C40.3845 9.53996 38.46 7.61546 38.46 5.24996C38.46 2.88446 40.3845 0.959961 42.75 0.959961C45.1155 0.959961 47.04 2.88446 47.04 5.24996C47.04 7.61546 45.1155 9.53996 42.75 9.53996ZM42.75 2.03996C40.98 2.03996 39.54 3.47996 39.54 5.24996C39.54 7.01996 40.98 8.45996 42.75 8.45996C44.52 8.45996 45.96 7.01996 45.96 5.24996C45.96 3.47996 44.52 2.03996 42.75 2.03996Z" fill="#0075BB"/>
</g>
<defs>
<clipPath id="clip0_5028_34552">
<rect width="48" height="48" fill="white"/>
</clipPath>
</defs>
</svg>
