<svg width="60" height="60" viewBox="0 0 60 60" fill="none" xmlns="http://www.w3.org/2000/svg">
<path d="M33 60C33 60 33 57.75 33 53C33 45.561 38.611 37.923 42.728 33.318" stroke="#8EB73C" stroke-width="2" stroke-miterlimit="10"/>
<path d="M33 53C33 43.687 26.125 36 19 36" stroke="#8EB73C" stroke-width="2" stroke-miterlimit="10"/>
<path d="M30 37C30 37 27.375 27 16 27C11.653 27 4 30.438 4 38" stroke="#8EB73C" stroke-width="2" stroke-miterlimit="10"/>
<path d="M30 28C30 19.062 27.263 16.134 24.444 13.425" stroke="#8EB73C" stroke-width="2" stroke-miterlimit="10"/>
<path d="M25 22C28.866 22 32 18.866 32 15C32 6.125 19.292 6 15 6C15 11.042 16.917 22 25 22Z" stroke="#8EB73C" stroke-width="2" stroke-miterlimit="10"/>
<path d="M4 38C4 42.163 5.956 45.869 9 48.248C9 43.901 9.776 41.623 11.595 39.238" stroke="#8EB73C" stroke-width="2" stroke-miterlimit="10"/>
<path d="M4 38C4 36.343 5.343 35 7 35C13.229 35 11.594 50 24 50C26.71 50 28.839 49.652 32.372 48.173" stroke="#8EB73C" stroke-width="2" stroke-miterlimit="10"/>
<path d="M54 29C54 38.941 48.627 47 42 47C37.156 47 35 44.701 35 44.701C35 44.701 33 40.688 33 35C33 29.562 36.737 24.297 42.375 22C48 19.708 49.5 16.833 50.5 14C52.766 18.473 54 23.643 54 29Z" stroke="#8EB73C" stroke-width="2" stroke-miterlimit="10"/>
</svg>
