<svg width="186" height="373" viewBox="0 0 186 373" fill="none" xmlns="http://www.w3.org/2000/svg">
<g opacity="0.1">
<path d="M-23.1144 333.49C-7.77895 339.643 8.05119 343.316 22.2983 343.316C80.5729 343.316 155.865 281.779 155.865 214.981H-17.7717L7.75437 187.091H181.589C194.55 234.038 177.73 274.136 147.059 312.349C116.389 350.561 69.5907 372.496 22.8919 372.496C-4.01929 372.496 -29.6443 365.648 -52.499 353.539" fill="#C3C8CD"/>
<path d="M38.1118 0.0914641C-3.19211 -1.00364 -42.2233 7.65766 -74.4364 30.2567C-117.519 60.4219 -147.954 110.2 -153.586 168.738C-154.475 177.698 -154.673 186.658 -154.278 195.518L-125.226 189.744C-125.226 183.771 -125.128 177.798 -124.535 171.924C-119.792 123.042 -89.6537 76.5499 -49.7331 49.67C-23.9429 32.2478 5.9975 23.0887 35.8391 26.6727C86.9255 32.8451 122.004 64.4042 152.933 106.914L181.786 99.3481C148.98 44.0949 95.5223 1.58479 38.1118 0.0914641Z" fill="#C3C8CD"/>
</g>
</svg>
