<svg width="291" height="373" viewBox="0 0 291 373" fill="none" xmlns="http://www.w3.org/2000/svg">
<g opacity="0.7">
<path d="M81.8859 333.49C97.2213 339.643 113.051 343.316 127.299 343.316C185.573 343.316 260.865 281.779 260.865 214.981H87.2285L112.755 187.091H286.589C299.55 234.038 282.73 274.136 252.06 312.349C221.389 350.561 174.591 372.496 127.892 372.496C100.981 372.496 75.3559 365.648 52.5012 353.539" fill="white"/>
<path d="M143.112 0.0914641C101.808 -1.00364 62.7767 7.65766 30.5636 30.2567C-12.519 60.4219 -42.9535 110.2 -48.5859 168.738C-49.4752 177.698 -49.6728 186.658 -49.2776 195.518L-20.2264 189.744C-20.2264 183.771 -20.1276 177.798 -19.5348 171.924C-14.7917 123.042 15.3463 76.5499 55.2669 49.67C81.0571 32.2478 110.997 23.0887 140.839 26.6727C191.926 32.8451 227.004 64.4042 257.933 106.914L286.786 99.3481C253.98 44.0949 200.522 1.58479 143.112 0.0914641Z" fill="white"/>
<path d="M-52 266.36C-52 237.47 -28.756 214.059 -0.170746 214.059C28.4145 214.059 51.6585 237.47 51.6585 266.36C51.6585 295.249 28.4145 318.56 -0.170746 318.56C-28.756 318.56 -52 295.15 -52 266.36Z" fill="white"/>
</g>
</svg>
